<svg width="115" height="19" viewBox="0 0 115 19" fill="none" xmlns="http://www.w3.org/2000/svg">
<path d="M60.5182 0C65.9028 0 70.2681 4.10398 70.2681 9.17373V9.17947C70.2681 14.2492 65.9028 18.3589 60.5182 18.3589C55.133 18.3589 50.7678 14.2492 50.7678 9.17947V9.17373C50.7678 4.10398 55.133 0 60.5182 0Z" fill="#7CC40B"/>
<path d="M45.2059 0.118347C46.7437 0.118347 48.0336 0.429016 49.6038 1.17828V5.13815C48.1168 3.76963 46.8269 3.19685 45.1209 3.19685C41.768 3.19685 39.1315 5.81013 39.1315 9.12325C39.1315 12.617 41.6867 15.0747 45.2871 15.0747C46.908 15.0747 48.1739 14.5317 49.6038 13.1853V17.1472C47.9777 17.868 46.6604 18.1523 45.1209 18.1523C39.6773 18.1523 35.4474 14.2195 35.4474 9.14779C35.4472 4.13043 39.7898 0.118347 45.2059 0.118347Z" fill="#FFFBFB"/>
<path d="M28.3039 0.227295C30.3134 0.227295 32.1518 0.874916 33.6891 2.14074L31.8185 4.44649C30.8872 3.46383 30.0065 3.04943 28.9358 3.04943C27.3948 3.04943 26.2728 3.87527 26.2728 4.96184C26.2728 5.89367 26.9024 6.38691 29.0477 7.13426C33.1141 8.5341 34.3194 9.77556 34.3194 12.5168C34.3194 15.8572 31.7129 18.1826 27.9982 18.1826C25.2777 18.1826 23.3002 17.174 21.6531 14.8982L23.9623 12.8043C24.7855 14.3026 26.1591 15.1057 27.8644 15.1057C29.4592 15.1057 30.6399 14.0699 30.6399 12.6718C30.6399 11.9471 30.2821 11.326 29.5681 10.8865C29.2085 10.6785 28.4964 10.3684 27.0969 9.90384C23.7392 8.76593 22.5874 7.54953 22.5874 5.17226C22.5872 2.34821 25.0611 0.227295 28.3039 0.227295Z" fill="#FFFBFB"/>
<path d="M69.1562 0.528229H73.061L77.9489 12.1182L82.9 0.528229H86.7752L78.8574 18.2261H76.9335L69.1562 0.528229Z" fill="#FFFBFB"/>
<path d="M16.7316 0.554688H20.3067V17.81H16.7316V0.554688Z" fill="#FFFBFB"/>
<path d="M88.3916 0.554688H98.5301V3.47846H91.9642V7.30849H98.2883V10.2309H91.9642V14.8887H98.5301V17.81H88.3916V0.554688Z" fill="#FFFBFB"/>
<path d="M108.51 10.5409C111.203 10.0248 112.684 8.29116 112.684 5.64933C112.684 2.41872 110.321 0.554871 106.198 0.554871H100.898V17.8102H104.469V10.8782H104.935L109.883 17.81H114.28L108.51 10.5409ZM105.513 8.49827H104.469V3.27258H105.57C107.796 3.27258 109.006 4.15133 109.006 5.83052C109.006 7.56505 107.796 8.49827 105.513 8.49827Z" fill="#FFFBFB"/>
<path d="M5.24728 0.554688H0V17.81H5.21995C7.99527 17.81 10.0001 17.1934 11.7593 15.8181C13.8503 14.189 15.0866 11.7338 15.0866 9.19444C15.0867 4.10207 11.0451 0.554688 5.24728 0.554688ZM9.42383 13.5174C8.30054 14.4718 6.84153 14.8887 4.53178 14.8887H3.5721V3.47846H4.5316C6.84135 3.47846 8.24276 3.86798 9.42365 4.87395C10.6601 5.91056 11.4038 7.51648 11.4038 9.16973C11.4039 10.8254 10.6601 12.4808 9.42383 13.5174Z" fill="#FFFBFB"/>
</svg>
